<?xml version="1.0" encoding="UTF-8"?>
<svg id="_レイヤー_1" data-name="レイヤー 1" xmlns="http://www.w3.org/2000/svg" viewBox="0 0 308.89 193.1">
  <defs>
    <style>
      .cls-1 {
        fill: #ec1639;
      }

      .cls-2 {
        fill: #fefefe;
      }

      .cls-3 {
        fill: #1b63b6;
      }
    </style>
  </defs>
  <g>
    <polygon class="cls-3" points="205.87 0 205.87 0 308.89 0 308.89 193.1 205.87 193.1 205.87 0"/>
    <path class="cls-2" d="M285.45,30.69h0c-1.09,4.2-2.54,7.31-4.54,7.31-2.54,0-7.63-10.23-21.8-10.23-19.26,0-38.16,26.12-38.16,68.32s18.9,68.32,39.61,68.32,32.16-19,32.16-56.27h-5.63c-.36,37.63-11.99,48.96-24.89,48.96-11.08,0-24.17-15.16-24.17-61.02s8.9-61.2,21.8-61.2c16.35,0,22.71,23.2,25.62,45.67h4.91V30.69h-4.91Z"/>
    <polygon class="cls-1" points="102.84 0 102.84 0 205.87 0 205.87 193.1 102.84 193.1 102.84 0"/>
    <path class="cls-2" d="M162.26,110.52h-25.98l12.72-50.6h.36l12.9,50.6Zm-20.9,50.79h0v-6.03c-11.45-.73-12.9-3.11-12.9-10.05,0-2.56,.73-6.76,1.64-10.05l4.36-17.54h29.98l6.72,25.03c.73,2.92,1.09,4.57,1.09,6.39,0,4.57-3.27,6.21-11.27,6.21v6.03h38.16v-6.03c-8.54-.73-9.99-2.74-12.17-11.14l-31.43-116.37h-5.09l-29.25,117.65c-1.45,6.03-4.18,9.13-11.45,9.86v6.03h31.62Z"/>
  </g>
  <polygon class="cls-3" points="0 0 0 0 102.84 0 102.84 193.1 0 193.1 0 0"/>
  <path class="cls-2" d="M79.4,30.69h0c-1.09,4.2-2.54,7.31-4.36,7.31-2.73,0-7.81-10.23-21.99-10.23-19.26,0-37.98,26.12-37.98,68.32s18.72,68.32,39.43,68.32,32.16-19,32.16-56.27h-5.63c-.36,37.63-11.99,48.96-24.89,48.96-11.08,0-24.17-15.16-24.17-61.02s8.9-61.2,21.8-61.2c16.35,0,22.71,23.2,25.62,45.67h4.91V30.69h-4.91Z"/>
</svg>